<?xml version="1.0" encoding="UTF-8"?>
<svg width="20px" height="20px" viewBox="0 0 20 20" version="1.1" xmlns="http://www.w3.org/2000/svg" xmlns:xlink="http://www.w3.org/1999/xlink">
    <g stroke="none" stroke-width="1" fill="none" fill-rule="evenodd">
        <g transform="translate(-28.000000, -26.000000)" fill="#000000">
            <g transform="translate(8.000000, 8.000000)">
                <path d="M28.660411,26.660411 L28.660411,19.339589 C28.660411,18.5997544 29.2601654,18 30,18 C30.7398346,18 31.339589,18.5997544 31.339589,19.339589 L31.339589,26.660411 L38.660411,26.660411 C39.4002456,26.660411 40,27.2601654 40,28 C40,28.7398346 39.4002456,29.339589 38.660411,29.339589 L31.339589,29.339589 L31.339589,36.660411 C31.339589,37.4002456 30.7398346,38 30,38 C29.2601654,38 28.660411,37.4002456 28.660411,36.660411 L28.660411,29.339589 L21.339589,29.339589 C20.5997544,29.339589 20,28.7398346 20,28 C20,27.2601654 20.5997544,26.660411 21.339589,26.660411 L28.660411,26.660411 Z"></path>
            </g>
        </g>
    </g>
</svg>
