<svg xmlns="http://www.w3.org/2000/svg" width="24" height="24" viewBox="0 0 24 24">
    <path fill="#006CB3" d="M9.003 18.572L7.87 19.697a2.536 2.536 0 01-3.562 0 2.452 2.452 0 01-.732-1.751c0-.662.26-1.284.731-1.753l4.172-4.139c.865-.857 2.491-2.12 3.677-.944a1.388 1.388 0 101.956-1.97c-2.015-2-4.994-1.63-7.588.944l-4.172 4.14A5.21 5.21 0 00.8 17.945c0 1.406.551 2.728 1.552 3.721A5.288 5.288 0 006.088 23.2a5.29 5.29 0 003.738-1.533l1.134-1.126a1.387 1.387 0 10-1.957-1.97zm12.644-16.08c-2.164-2.147-5.19-2.264-7.194-.276L13.04 3.62a1.387 1.387 0 101.956 1.97l1.412-1.402c1.038-1.031 2.397-.604 3.284.276a2.45 2.45 0 01.732 1.752c0 .662-.26 1.284-.732 1.752l-4.45 4.416c-2.036 2.02-2.99 1.072-3.398.667a1.388 1.388 0 00-1.956 1.97c.934.927 2 1.387 3.119 1.387 1.369 0 2.815-.69 4.19-2.054l4.45-4.416A5.211 5.211 0 0023.2 6.215a5.211 5.211 0 00-1.553-3.723z"/>
</svg>
