<svg xmlns="http://www.w3.org/2000/svg" width="24" height="20" viewBox="0 0 24 20">
    <path fill="#015485" fill-rule="evenodd" d="M12 8.354c.926 0 1.717.325 2.374.975.657.65.986 1.433.986 2.348 0 .915-.329 1.698-.986 2.348A3.254 3.254 0 0112 15a3.254 3.254 0 01-2.374-.975c-.657-.65-.986-1.433-.986-2.348 0-.915.329-1.698.986-2.348A3.254 3.254 0 0112 8.354zm8.213-4.8c.825 0 1.529.288 2.112.865a2.83 2.83 0 01.875 2.089v10.338a2.83 2.83 0 01-.875 2.089 2.894 2.894 0 01-2.112.865H3.787a2.894 2.894 0 01-2.112-.865A2.83 2.83 0 01.8 16.846V6.508c0-.816.292-1.512.875-2.089a2.894 2.894 0 012.112-.865H6.4l.595-1.57c.148-.376.418-.701.81-.974C8.2.737 8.602.6 9.014.6h5.974c.412 0 .814.137 1.207.41.393.273.663.598.811.975l.595 1.569h2.613zM12.022 17.1c1.511 0 2.804-.53 3.879-1.591 1.074-1.061 1.611-2.338 1.611-3.83 0-1.493-.537-2.77-1.611-3.83-1.075-1.061-2.368-1.592-3.88-1.592-1.51 0-2.804.53-3.878 1.591-1.075 1.061-1.612 2.338-1.612 3.83 0 1.493.537 2.77 1.612 3.83C9.217 16.57 10.51 17.1 12.022 17.1z"/>
</svg>
