<svg xmlns="http://www.w3.org/2000/svg" width="18" height="24" viewBox="0 0 18 24">
    <path fill="#EC553B" fill-rule="evenodd" d="M14.66.8c1.091 0 1.487.114 1.887.327.399.214.712.527.926.926.213.4.327.796.327 1.888v16.118c0 1.092-.114 1.488-.327 1.888-.214.399-.527.712-.926.926-.4.213-.796.327-1.888.327H3.341c-1.092 0-1.488-.114-1.888-.327a2.226 2.226 0 01-.926-.926C.314 21.547.2 21.15.2 20.059V3.941c0-1.092.114-1.488.327-1.888.214-.399.527-.712.926-.926C1.853.914 2.25.8 3.341.8h11.318zm-1.703 17.15H4.292a.7.7 0 00-.7.7v.7a.7.7 0 00.7.7h8.665a.7.7 0 00.7-.7v-.7a.7.7 0 00-.7-.7zm0-3.85H4.292a.7.7 0 00-.7.7v.7a.7.7 0 00.7.7h8.665a.7.7 0 00.7-.7v-.7a.7.7 0 00-.7-.7zm0-3.85H4.292a.7.7 0 00-.7.7v.7a.7.7 0 00.7.7h8.665a.7.7 0 00.7-.7v-.7a.7.7 0 00-.7-.7zM7.69 5.05H4.3a.7.7 0 00-.7.7V7.1a.7.7 0 00.7.7h3.39a.7.7 0 00.7-.7V5.75a.7.7 0 00-.7-.7z"/>
</svg>
