<svg xmlns="http://www.w3.org/2000/svg" width="24" height="16" viewBox="0 0 24 16">
    <path fill="#E81D63" fill-rule="evenodd" d="M17.34 0c2.037 0 2.776.212 3.521.61.745.399 1.33.984 1.728 1.729.399.745.611 1.484.611 3.521v4.28c0 2.037-.212 2.776-.61 3.521a4.154 4.154 0 01-1.729 1.728c-.745.399-1.484.611-3.521.611H6.66c-2.037 0-2.776-.212-3.521-.61A4.154 4.154 0 011.41 13.66C1.012 12.916.8 12.177.8 10.14V5.86c0-2.037.212-2.776.61-3.521A4.154 4.154 0 013.14.61C3.884.212 4.623 0 6.66 0h10.68zM9.566 4.18a.309.309 0 00-.309.31v7.02a.309.309 0 00.47.264l5.73-3.51a.309.309 0 000-.527l-5.73-3.51a.309.309 0 00-.161-.046z"/>
</svg>
