<svg xmlns="http://www.w3.org/2000/svg" width="40" height="28" viewBox="0 0 40 28">
    <g fill="none" fill-rule="evenodd">
        <path fill="#E6E6E6" d="M10.256 0h19.488c3.567 0 4.86.371 6.163 1.069a7.27 7.27 0 013.024 3.024C39.63 5.396 40 6.689 40 10.256v7.488c0 3.567-.371 4.86-1.069 6.163a7.27 7.27 0 01-3.024 3.024C34.604 27.63 33.311 28 29.744 28H10.256c-3.567 0-4.86-.371-6.163-1.069a7.27 7.27 0 01-3.024-3.024C.37 22.604 0 21.311 0 17.744v-7.488c0-3.567.371-4.86 1.069-6.163a7.27 7.27 0 013.024-3.024C5.396.37 6.689 0 10.256 0z"/>
        <path fill="#000" fill-rule="nonzero" d="M16.08 19l1.15-3.423h4.927L23.289 19h2.57l-4.76-13.387h-2.69L13.659 19h2.421zm5.52-5.316h-3.813l1.837-5.52h.158l1.818 5.52z"/>
        <rect width="26" height="3" x="7" y="21" fill="#000" rx="1"/>
    </g>
</svg>
